<?xml version="1.0" encoding="UTF-8" standalone="no"?>
<svg
   xmlns:dc="http://purl.org/dc/elements/1.1/"
   xmlns:cc="http://creativecommons.org/ns#"
   xmlns:rdf="http://www.w3.org/1999/02/22-rdf-syntax-ns#"
   xmlns:svg="http://www.w3.org/2000/svg"
   xmlns="http://www.w3.org/2000/svg"
   xmlns:sodipodi="http://sodipodi.sourceforge.net/DTD/sodipodi-0.dtd"
   xmlns:inkscape="http://www.inkscape.org/namespaces/inkscape"
   width="210mm"
   height="297mm"
   viewBox="0 0 210 297"
   version="1.1"
   id="svg8"
   inkscape:version="1.0.2 (e86c870879, 2021-01-15)"
   sodipodi:docname="logo.svg">
  <defs
     id="defs2" />
  <sodipodi:namedview
     id="base"
     pagecolor="#ffffff"
     bordercolor="#666666"
     borderopacity="1.0"
     inkscape:pageopacity="0.0"
     inkscape:pageshadow="2"
     inkscape:zoom="0.35"
     inkscape:cx="400"
     inkscape:cy="560"
     inkscape:document-units="mm"
     inkscape:current-layer="layer1"
     inkscape:document-rotation="0"
     showgrid="false"
     inkscape:window-width="1860"
     inkscape:window-height="1016"
     inkscape:window-x="60"
     inkscape:window-y="27"
     inkscape:window-maximized="1" />
  <metadata
     id="metadata5">
    <rdf:RDF>
      <cc:Work
         rdf:about="">
        <dc:format>image/svg+xml</dc:format>
        <dc:type
           rdf:resource="http://purl.org/dc/dcmitype/StillImage" />
        <dc:title></dc:title>
      </cc:Work>
    </rdf:RDF>
  </metadata>
  <g
     inkscape:label="Layer 1"
     inkscape:groupmode="layer"
     id="layer1">
    <path
       sodipodi:type="star"
       style="fill:#1a1a1a;stroke-width:0.264583"
       id="path833"
       sodipodi:sides="18"
       sodipodi:cx="78.838531"
       sodipodi:cy="107.26788"
       sodipodi:r1="91.594528"
       sodipodi:r2="16.487015"
       sodipodi:arg1="0.73919405"
       sodipodi:arg2="0.91372698"
       inkscape:flatsided="false"
       inkscape:rounded="0.27"
       inkscape:randomized="0"
       d="M 146.52797,168.97443 C 132.81069,184.0217 105.0306,107.88538 88.908784,120.32207 72.786971,132.75875 139.3774,178.956 121.34091,188.40422 c -18.03649,9.44822 -18.10108,-71.59786 -37.50423,-65.42519 -19.403145,6.17268 27.371,72.35916 7.190761,75.06874 -20.180242,2.70958 7.478457,-73.47092 -12.865715,-74.30677 -20.344172,-0.83585 0.972038,77.35681 -18.917917,73.00093 -19.889954,-4.35588 32.155986,-66.4823 13.324596,-74.22586 -18.831391,-7.74356 -25.54417,73.02407 -42.744814,62.12812 C 12.622946,173.74824 82.778619,133.16926 67.731353,119.45198 52.684087,105.7347 18.751981,179.33555 6.315297,163.21373 -6.1213867,147.09192 73.68221,132.95481 64.233991,114.91831 54.785772,96.881817 -2.2729492,154.43852 -8.4456242,135.03538 -14.618299,115.63223 65.207729,129.64213 62.498152,109.46189 c -2.709578,-20.180245 -76.012789,14.39014 -75.17694,-5.95404 0.835849,-20.344168 71.056113,20.12294 75.411992,0.23298 C 67.089083,83.850879 -13.61717,91.265235 -5.8736125,72.433844 1.8699456,53.602454 54.014844,115.64584 64.910796,98.445194 75.806749,81.244549 -2.5681813,60.6086 11.149098,45.561334 24.866377,30.514068 52.646466,106.65039 68.768279,94.213701 84.890092,81.777018 18.299659,35.579764 36.336153,26.131545 54.372647,16.683326 54.437237,97.729411 73.840383,91.556736 93.243528,85.38406 46.46938,19.197573 66.649622,16.487995 86.829864,13.778418 59.171165,89.958917 79.515337,90.794766 99.859509,91.630615 78.543299,13.43796 98.433254,17.79384 118.32321,22.149719 66.277268,84.27614 85.108658,92.019698 103.94005,99.763256 110.65283,18.995622 127.85347,29.891575 145.05412,40.787527 74.898444,81.366506 89.94571,95.083786 104.99298,108.80106 138.92508,35.200221 151.36177,51.322034 163.79845,67.443847 83.994853,81.580961 93.443072,99.617455 102.89129,117.65395 159.95001,60.097243 166.12269,79.500389 c 6.17267,19.403145 -73.653356,5.393249 -70.943779,25.573491 2.709578,20.18024 76.012789,-14.390139 75.176939,5.95403 -0.83585,20.34417 -71.056112,-20.122931 -75.411991,-0.23298 -4.355879,19.88996 76.350371,12.4756 68.606821,31.30699 -7.74356,18.83139 -59.88846,-43.211992 -70.784413,-26.01135 -10.895953,17.20065 67.478973,37.8366 53.761703,52.88386 z"
       inkscape:transform-center-x="4.3659492"
       inkscape:transform-center-y="-4.4895635"
       transform="rotate(146.77397,87.602598,124.26255)"
       inkscape:export-xdpi="28.011173"
       inkscape:export-ydpi="28.011173" />
  </g>
</svg>
